<?xml version="1.0" encoding="UTF-8" standalone="no"?>
<svg
   width="66"
   height="66"
   version="1.1"
   id="svg176"
   sodipodi:docname="smokefreefv.svg"
   xml:space="preserve"
   inkscape:version="1.3.2 (091e20ef0f, 2023-11-25)"
   xmlns:inkscape="http://www.inkscape.org/namespaces/inkscape"
   xmlns:sodipodi="http://sodipodi.sourceforge.net/DTD/sodipodi-0.dtd"
   xmlns="http://www.w3.org/2000/svg"
   xmlns:svg="http://www.w3.org/2000/svg"><defs
     id="defs176" /><sodipodi:namedview
     id="namedview176"
     pagecolor="#ffffff"
     bordercolor="#666666"
     borderopacity="1.0"
     inkscape:showpageshadow="2"
     inkscape:pageopacity="0.0"
     inkscape:pagecheckerboard="0"
     inkscape:deskcolor="#d1d1d1"
     inkscape:zoom="8.62456"
     inkscape:cx="23.247563"
     inkscape:cy="25.218678"
     inkscape:window-width="1920"
     inkscape:window-height="1011"
     inkscape:window-x="0"
     inkscape:window-y="0"
     inkscape:window-maximized="1"
     inkscape:current-layer="svg176" /><desc
     id="desc1">Zint Generated Symbol
   </desc><g
     id="barcode"
     fill="#000000"><rect
       x="0"
       y="0"
       width="66"
       height="66"
       fill="#FFFFFF"
       id="rect1" /><rect
       x="4.00"
       y="4.00"
       width="14.00"
       height="2.00"
       id="rect2" /><rect
       x="22.00"
       y="4.00"
       width="2.00"
       height="2.00"
       id="rect3" /><rect
       x="26.00"
       y="4.00"
       width="4.00"
       height="2.00"
       id="rect4" /><rect
       x="32.00"
       y="4.00"
       width="2.00"
       height="2.00"
       id="rect5" /><rect
       x="42.00"
       y="4.00"
       width="2.00"
       height="2.00"
       id="rect6" /><rect
       x="48.00"
       y="4.00"
       width="14.00"
       height="2.00"
       id="rect7" /><rect
       x="4.00"
       y="6.00"
       width="2.00"
       height="10.00"
       id="rect8" /><rect
       x="16.00"
       y="6.00"
       width="2.00"
       height="10.00"
       id="rect9" /><rect
       x="24.00"
       y="6.00"
       width="6.00"
       height="2.00"
       id="rect10" /><rect
       x="36.00"
       y="6.00"
       width="6.00"
       height="2.00"
       id="rect11" /><rect
       x="44.00"
       y="6.00"
       width="2.00"
       height="2.00"
       id="rect12" /><rect
       x="48.00"
       y="6.00"
       width="2.00"
       height="10.00"
       id="rect13" /><rect
       x="60.00"
       y="6.00"
       width="2.00"
       height="10.00"
       id="rect14" /><rect
       x="8.00"
       y="8.00"
       width="6.00"
       height="6.00"
       id="rect15" /><rect
       x="24.00"
       y="8.00"
       width="4.00"
       height="2.00"
       id="rect16" /><rect
       x="32.00"
       y="8.00"
       width="4.00"
       height="2.00"
       id="rect17" /><rect
       x="38.00"
       y="8.00"
       width="4.00"
       height="2.00"
       id="rect18" /><rect
       x="52.00"
       y="8.00"
       width="6.00"
       height="6.00"
       id="rect19" /><rect
       x="28.00"
       y="10.00"
       width="4.00"
       height="2.00"
       id="rect20" /><rect
       x="36.00"
       y="10.00"
       width="2.00"
       height="2.00"
       id="rect21" /><rect
       x="40.00"
       y="10.00"
       width="2.00"
       height="2.00"
       id="rect22" /><rect
       x="28.00"
       y="12.00"
       width="2.00"
       height="2.00"
       id="rect23" /><rect
       x="38.00"
       y="12.00"
       width="4.00"
       height="2.00"
       id="rect24" /><rect
       x="20.00"
       y="14.00"
       width="6.00"
       height="2.00"
       id="rect25" /><rect
       x="34.00"
       y="14.00"
       width="4.00"
       height="2.00"
       id="rect26" /><rect
       x="42.00"
       y="14.00"
       width="2.00"
       height="2.00"
       id="rect27" /><rect
       x="4.00"
       y="16.00"
       width="14.00"
       height="2.00"
       id="rect28" /><rect
       x="20.00"
       y="16.00"
       width="2.00"
       height="2.00"
       id="rect29" /><rect
       x="24.00"
       y="16.00"
       width="2.00"
       height="2.00"
       id="rect30" /><rect
       x="28.00"
       y="16.00"
       width="2.00"
       height="2.00"
       id="rect31" /><rect
       x="32.00"
       y="16.00"
       width="2.00"
       height="2.00"
       id="rect32" /><rect
       x="36.00"
       y="16.00"
       width="2.00"
       height="2.00"
       id="rect33" /><rect
       x="40.00"
       y="16.00"
       width="2.00"
       height="2.00"
       id="rect34" /><rect
       x="44.00"
       y="16.00"
       width="2.00"
       height="2.00"
       id="rect35" /><rect
       x="48.00"
       y="16.00"
       width="14.00"
       height="2.00"
       id="rect36" /><rect
       x="22.00"
       y="18.00"
       width="2.00"
       height="2.00"
       id="rect37" /><rect
       x="26.00"
       y="18.00"
       width="6.00"
       height="2.00"
       id="rect38" /><rect
       x="34.00"
       y="18.00"
       width="6.00"
       height="2.00"
       id="rect39" /><rect
       x="42.00"
       y="18.00"
       width="4.00"
       height="2.00"
       id="rect40" /><rect
       x="4.00"
       y="20.00"
       width="2.00"
       height="4.00"
       id="rect41" /><rect
       x="10.00"
       y="20.00"
       width="2.00"
       height="2.00"
       id="rect42" /><rect
       x="14.00"
       y="20.00"
       width="4.00"
       height="2.00"
       id="rect43" /><rect
       x="20.00"
       y="20.00"
       width="6.00"
       height="2.00"
       id="rect44" /><rect
       x="28.00"
       y="20.00"
       width="2.00"
       height="2.00"
       id="rect45" /><rect
       x="32.00"
       y="20.00"
       width="2.00"
       height="2.00"
       id="rect46" /><rect
       x="36.00"
       y="20.00"
       width="2.00"
       height="2.00"
       id="rect47" /><rect
       x="46.00"
       y="20.00"
       width="2.00"
       height="2.00"
       id="rect48" /><rect
       x="50.00"
       y="20.00"
       width="2.00"
       height="2.00"
       id="rect49" /><rect
       x="8.00"
       y="22.00"
       width="6.00"
       height="2.00"
       id="rect50" /><rect
       x="18.00"
       y="22.00"
       width="2.00"
       height="2.00"
       id="rect51" /><rect
       x="22.00"
       y="22.00"
       width="4.00"
       height="2.00"
       id="rect52" /><rect
       x="30.00"
       y="22.00"
       width="2.00"
       height="2.00"
       id="rect53" /><rect
       x="34.00"
       y="22.00"
       width="8.00"
       height="2.00"
       id="rect54" /><rect
       x="44.00"
       y="22.00"
       width="6.00"
       height="2.00"
       id="rect55" /><rect
       x="54.00"
       y="22.00"
       width="2.00"
       height="2.00"
       id="rect56" /><rect
       x="60.00"
       y="22.00"
       width="2.00"
       height="2.00"
       id="rect57" /><rect
       x="6.00"
       y="24.00"
       width="4.00"
       height="2.00"
       id="rect58" /><rect
       x="16.00"
       y="24.00"
       width="2.00"
       height="2.00"
       id="rect59" /><rect
       x="26.00"
       y="24.00"
       width="2.00"
       height="2.00"
       id="rect60" /><rect
       x="30.00"
       y="24.00"
       width="6.00"
       height="2.00"
       id="rect61" /><rect
       x="42.00"
       y="24.00"
       width="6.00"
       height="2.00"
       id="rect62" /><rect
       x="50.00"
       y="24.00"
       width="2.00"
       height="2.00"
       id="rect63" /><rect
       x="54.00"
       y="24.00"
       width="6.00"
       height="2.00"
       id="rect64" /><rect
       x="10.00"
       y="26.00"
       width="4.00"
       height="2.00"
       id="rect65" /><rect
       x="24.00"
       y="26.00"
       width="8.00"
       height="2.00"
       id="rect66" /><rect
       x="36.00"
       y="26.00"
       width="2.00"
       height="2.00"
       id="rect67" /><rect
       x="40.00"
       y="26.00"
       width="2.00"
       height="2.00"
       id="rect68" /><rect
       x="52.00"
       y="26.00"
       width="2.00"
       height="2.00"
       id="rect69" /><rect
       x="56.00"
       y="26.00"
       width="4.00"
       height="2.00"
       id="rect70" /><rect
       x="8.00"
       y="28.00"
       width="2.00"
       height="2.00"
       id="rect71" /><rect
       x="12.00"
       y="28.00"
       width="2.00"
       height="2.00"
       id="rect72" /><rect
       x="16.00"
       y="28.00"
       width="10.00"
       height="2.00"
       id="rect73" /><rect
       x="32.00"
       y="28.00"
       width="4.00"
       height="2.00"
       id="rect74" /><rect
       x="38.00"
       y="28.00"
       width="2.00"
       height="2.00"
       id="rect75" /><rect
       x="42.00"
       y="28.00"
       width="8.00"
       height="2.00"
       id="rect76" /><rect
       x="54.00"
       y="28.00"
       width="2.00"
       height="2.00"
       id="rect77" /><rect
       x="58.00"
       y="28.00"
       width="4.00"
       height="2.00"
       id="rect78" /><rect
       x="4.00"
       y="30.00"
       width="4.00"
       height="4.00"
       id="rect79" /><rect
       x="10.00"
       y="30.00"
       width="6.00"
       height="2.00"
       id="rect80" /><rect
       x="20.00"
       y="30.00"
       width="2.00"
       height="2.00"
       id="rect81" /><rect
       x="24.00"
       y="30.00"
       width="2.00"
       height="2.00"
       id="rect82" /><rect
       x="28.00"
       y="30.00"
       width="12.00"
       height="2.00"
       id="rect83" /><rect
       x="42.00"
       y="30.00"
       width="2.00"
       height="2.00"
       id="rect84" /><rect
       x="46.00"
       y="30.00"
       width="2.00"
       height="2.00"
       id="rect85" /><rect
       x="14.00"
       y="32.00"
       width="4.00"
       height="2.00"
       id="rect86" /><rect
       x="20.00"
       y="32.00"
       width="6.00"
       height="2.00"
       id="rect87" /><rect
       x="30.00"
       y="32.00"
       width="4.00"
       height="2.00"
       id="rect88" /><rect
       x="40.00"
       y="32.00"
       width="2.00"
       height="2.00"
       id="rect89" /><rect
       x="46.00"
       y="32.00"
       width="4.00"
       height="2.00"
       id="rect90" /><rect
       x="54.00"
       y="32.00"
       width="8.00"
       height="2.00"
       id="rect91" /><rect
       x="8.00"
       y="34.00"
       width="8.00"
       height="2.00"
       id="rect92" /><rect
       x="18.00"
       y="34.00"
       width="4.00"
       height="2.00"
       id="rect93" /><rect
       x="26.00"
       y="34.00"
       width="4.00"
       height="2.00"
       id="rect94" /><rect
       x="34.00"
       y="34.00"
       width="2.00"
       height="2.00"
       id="rect95" /><rect
       x="38.00"
       y="34.00"
       width="2.00"
       height="2.00"
       id="rect96" /><rect
       x="44.00"
       y="34.00"
       width="6.00"
       height="2.00"
       id="rect97" /><rect
       x="52.00"
       y="34.00"
       width="4.00"
       height="2.00"
       id="rect98" /><rect
       x="58.00"
       y="34.00"
       width="2.00"
       height="4.00"
       id="rect99" /><rect
       x="6.00"
       y="36.00"
       width="2.00"
       height="2.00"
       id="rect100" /><rect
       x="12.00"
       y="36.00"
       width="6.00"
       height="2.00"
       id="rect101" /><rect
       x="22.00"
       y="36.00"
       width="10.00"
       height="2.00"
       id="rect102" /><rect
       x="38.00"
       y="36.00"
       width="6.00"
       height="2.00"
       id="rect103" /><rect
       x="46.00"
       y="36.00"
       width="2.00"
       height="2.00"
       id="rect104" /><rect
       x="8.00"
       y="38.00"
       width="2.00"
       height="2.00"
       id="rect105" /><rect
       x="14.00"
       y="38.00"
       width="2.00"
       height="2.00"
       id="rect106" /><rect
       x="18.00"
       y="38.00"
       width="2.00"
       height="2.00"
       id="rect107" /><rect
       x="22.00"
       y="38.00"
       width="6.00"
       height="2.00"
       id="rect108" /><rect
       x="30.00"
       y="38.00"
       width="10.00"
       height="2.00"
       id="rect109" /><rect
       x="48.00"
       y="38.00"
       width="4.00"
       height="2.00"
       id="rect110" /><rect
       x="54.00"
       y="38.00"
       width="2.00"
       height="2.00"
       id="rect111" /><rect
       x="60.00"
       y="38.00"
       width="2.00"
       height="2.00"
       id="rect112" /><rect
       x="4.00"
       y="40.00"
       width="2.00"
       height="2.00"
       id="rect113" /><rect
       x="12.00"
       y="40.00"
       width="10.00"
       height="2.00"
       id="rect114" /><rect
       x="32.00"
       y="40.00"
       width="8.00"
       height="2.00"
       id="rect115" /><rect
       x="44.00"
       y="40.00"
       width="2.00"
       height="2.00"
       id="rect116" /><rect
       x="48.00"
       y="40.00"
       width="6.00"
       height="2.00"
       id="rect117" /><rect
       x="58.00"
       y="40.00"
       width="4.00"
       height="4.00"
       id="rect118" /><rect
       x="8.00"
       y="42.00"
       width="2.00"
       height="4.00"
       id="rect119" /><rect
       x="12.00"
       y="42.00"
       width="4.00"
       height="2.00"
       id="rect120" /><rect
       x="18.00"
       y="42.00"
       width="4.00"
       height="2.00"
       id="rect121" /><rect
       x="24.00"
       y="42.00"
       width="6.00"
       height="2.00"
       id="rect122" /><rect
       x="32.00"
       y="42.00"
       width="2.00"
       height="2.00"
       id="rect123" /><rect
       x="38.00"
       y="42.00"
       width="2.00"
       height="2.00"
       id="rect124" /><rect
       x="42.00"
       y="42.00"
       width="6.00"
       height="2.00"
       id="rect125" /><rect
       x="52.00"
       y="42.00"
       width="2.00"
       height="2.00"
       id="rect126" /><rect
       x="4.00"
       y="44.00"
       width="2.00"
       height="2.00"
       id="rect127" /><rect
       x="16.00"
       y="44.00"
       width="2.00"
       height="2.00"
       id="rect128" /><rect
       x="20.00"
       y="44.00"
       width="2.00"
       height="2.00"
       id="rect129" /><rect
       x="34.00"
       y="44.00"
       width="2.00"
       height="2.00"
       id="rect130" /><rect
       x="44.00"
       y="44.00"
       width="10.00"
       height="2.00"
       id="rect131" /><rect
       x="56.00"
       y="44.00"
       width="2.00"
       height="2.00"
       id="rect132" /><rect
       x="20.00"
       y="46.00"
       width="4.00"
       height="2.00"
       id="rect133" /><rect
       x="26.00"
       y="46.00"
       width="2.00"
       height="2.00"
       id="rect134" /><rect
       x="32.00"
       y="46.00"
       width="4.00"
       height="2.00"
       id="rect135" /><rect
       x="42.00"
       y="46.00"
       width="4.00"
       height="2.00"
       id="rect136" /><rect
       x="52.00"
       y="46.00"
       width="2.00"
       height="4.00"
       id="rect137" /><rect
       x="56.00"
       y="46.00"
       width="6.00"
       height="2.00"
       id="rect138" /><rect
       x="4.00"
       y="48.00"
       width="14.00"
       height="2.00"
       id="rect139" /><rect
       x="24.00"
       y="48.00"
       width="2.00"
       height="2.00"
       id="rect140" /><rect
       x="36.00"
       y="48.00"
       width="2.00"
       height="2.00"
       id="rect141" /><rect
       x="40.00"
       y="48.00"
       width="2.00"
       height="4.00"
       id="rect142" /><rect
       x="44.00"
       y="48.00"
       width="2.00"
       height="4.00"
       id="rect143" /><rect
       x="48.00"
       y="48.00"
       width="2.00"
       height="2.00"
       id="rect144" /><rect
       x="58.00"
       y="48.00"
       width="2.00"
       height="2.00"
       id="rect145" /><rect
       x="4.00"
       y="50.00"
       width="2.00"
       height="10.00"
       id="rect146" /><rect
       x="16.00"
       y="50.00"
       width="2.00"
       height="10.00"
       id="rect147" /><rect
       x="20.00"
       y="50.00"
       width="4.00"
       height="2.00"
       id="rect148" /><rect
       x="26.00"
       y="50.00"
       width="4.00"
       height="2.00"
       id="rect149" /><rect
       x="32.00"
       y="50.00"
       width="4.00"
       height="2.00"
       id="rect150" /><rect
       x="52.00"
       y="50.00"
       width="6.00"
       height="2.00"
       id="rect151" /><rect
       x="8.00"
       y="52.00"
       width="6.00"
       height="6.00"
       id="rect152" /><rect
       x="22.00"
       y="52.00"
       width="2.00"
       height="2.00"
       id="rect153" /><rect
       x="36.00"
       y="52.00"
       width="4.00"
       height="2.00"
       id="rect154" /><rect
       x="44.00"
       y="52.00"
       width="10.00"
       height="2.00"
       id="rect155" /><rect
       x="58.00"
       y="52.00"
       width="2.00"
       height="2.00"
       id="rect156" /><rect
       x="20.00"
       y="54.00"
       width="8.00"
       height="2.00"
       id="rect157" /><rect
       x="34.00"
       y="54.00"
       width="2.00"
       height="2.00"
       id="rect158" /><rect
       x="42.00"
       y="54.00"
       width="2.00"
       height="4.00"
       id="rect159" /><rect
       x="48.00"
       y="54.00"
       width="10.00"
       height="2.00"
       id="rect160" /><rect
       x="60.00"
       y="54.00"
       width="2.00"
       height="4.00"
       id="rect161" /><rect
       x="24.00"
       y="56.00"
       width="4.00"
       height="2.00"
       id="rect162" /><rect
       x="30.00"
       y="56.00"
       width="8.00"
       height="2.00"
       id="rect163" /><rect
       x="52.00"
       y="56.00"
       width="6.00"
       height="2.00"
       id="rect164" /><rect
       x="22.00"
       y="58.00"
       width="4.00"
       height="2.00"
       id="rect165" /><rect
       x="28.00"
       y="58.00"
       width="2.00"
       height="2.00"
       id="rect166" /><rect
       x="32.00"
       y="58.00"
       width="2.00"
       height="2.00"
       id="rect167" /><rect
       x="36.00"
       y="58.00"
       width="10.00"
       height="2.00"
       id="rect168" /><rect
       x="52.00"
       y="58.00"
       width="2.00"
       height="4.00"
       id="rect169" /><rect
       x="58.00"
       y="58.00"
       width="2.00"
       height="4.00"
       id="rect170" /><rect
       x="4.00"
       y="60.00"
       width="14.00"
       height="2.00"
       id="rect171" /><rect
       x="20.00"
       y="60.00"
       width="6.00"
       height="2.00"
       id="rect172" /><rect
       x="30.00"
       y="60.00"
       width="2.00"
       height="2.00"
       id="rect173" /><rect
       x="34.00"
       y="60.00"
       width="2.00"
       height="2.00"
       id="rect174" /><rect
       x="40.00"
       y="60.00"
       width="2.00"
       height="2.00"
       id="rect175" /><rect
       x="44.00"
       y="60.00"
       width="4.00"
       height="2.00"
       id="rect176" /></g><g
     id="g176"
     transform="matrix(0.03753838,0,0,0.03753857,24.750001,24.75)"><circle
       cx="249.5"
       cy="249.5"
       r="205"
       fill="#ffffff"
       stroke="#000000"
       transform="translate(-30.253,-31.61)"
       id="circle1" /><g
       transform="translate(-30.253,-31.61)"
       id="g7">
    <path
   d="m 105.403,257.423 h 246.02901 v 39.354 H 105.403 Z"
   id="path1" />
    <path
   fill="none"
   stroke="#000000"
   stroke-linejoin="round"
   stroke-miterlimit="10"
   stroke-width="13.187"
   d="m 274.445,100.269 c -23.356,0 -32.885,18.899 -32.885,33.48 0,16.618 13.668,34.512 39.566,32.992 -8.953,15.205 -1.094,39.916 20.144,39.916 h 35.414 c 18.898,0 28.707,10.047 28.707,25.579 v 18.056"
   id="path2" />
    <path
   fill="none"
   stroke="#000000"
   stroke-linejoin="round"
   stroke-miterlimit="10"
   stroke-width="13.187"
   d="m 285.789,113.105 c 23.736,0 39.488,16.49 39.488,36.692 0,7.809 -2.933,17.27 -8.881,25.473 h 20.938 c 30.438,0 48.593,25.359 48.593,50.775 v 24.247 m -20.53601,6.50701 V 296.621 M 386.005,256.79901 V 296.621"
   id="path3" />
    <path
   fill="#ffffff"
   d="m 273.44101,89.786003 h 13.187 V 122.405 h -13.187 z"
   id="path4" />
    <path
   fill="none"
   stroke="#ffffff"
   stroke-miterlimit="10"
   stroke-width="55"
   d="M 393.35001,392.509 110.112,109.275"
   id="path5" />
    <path
   fill="none"
   stroke="#ff0000"
   stroke-miterlimit="10"
   stroke-width="49"
   d="m 250.029,446.658 c -107.846,0 -195.276,-87.428 -195.276,-195.271 0,-107.848 87.43,-195.277 195.276,-195.277 107.845,0 195.274,87.429 195.274,195.277 0,107.843 -87.429,195.271 -195.274,195.271 z"
   id="path6" />
    <path
   fill="none"
   stroke="#ff0000"
   stroke-miterlimit="10"
   stroke-width="51.12"
   d="M 392.86801,392.19101 109.63,108.957"
   id="path7" />
  </g></g></svg>
